<svg xmlns="http://www.w3.org/2000/svg" viewBox="0 0 2560 1080" preserveAspectRatio="xMidYMid slice" role="img" aria-label="Sample hero background">
  <defs>
    <linearGradient id="bg" x1="0" y1="0" x2="1" y2="1">
      <stop offset="0%" stop-color="#0f172a"/>
      <stop offset="55%" stop-color="#1e3a8a"/>
      <stop offset="100%" stop-color="#2563eb"/>
    </linearGradient>
    <radialGradient id="glowA" cx="0.2" cy="0.3" r="0.6">
      <stop offset="0%" stop-color="#60a5fa" stop-opacity="0.55"/>
      <stop offset="60%" stop-color="#60a5fa" stop-opacity="0.05"/>
      <stop offset="100%" stop-color="#60a5fa" stop-opacity="0"/>
    </radialGradient>
    <radialGradient id="glowB" cx="0.85" cy="0.75" r="0.55">
      <stop offset="0%" stop-color="#a78bfa" stop-opacity="0.45"/>
      <stop offset="60%" stop-color="#a78bfa" stop-opacity="0.05"/>
      <stop offset="100%" stop-color="#a78bfa" stop-opacity="0"/>
    </radialGradient>
    <radialGradient id="glowC" cx="0.55" cy="0.15" r="0.4">
      <stop offset="0%" stop-color="#22d3ee" stop-opacity="0.35"/>
      <stop offset="100%" stop-color="#22d3ee" stop-opacity="0"/>
    </radialGradient>
    <filter id="grain" x="0" y="0" width="100%" height="100%">
      <feTurbulence type="fractalNoise" baseFrequency="0.85" numOctaves="2" stitchTiles="stitch"/>
      <feColorMatrix values="0 0 0 0 1 0 0 0 0 1 0 0 0 0 1 0 0 0 0.06 0"/>
      <feComposite in2="SourceGraphic" operator="in"/>
    </filter>
  </defs>

  <rect width="2560" height="1080" fill="url(#bg)"/>
  <rect width="2560" height="1080" fill="url(#glowA)"/>
  <rect width="2560" height="1080" fill="url(#glowB)"/>
  <rect width="2560" height="1080" fill="url(#glowC)"/>

  <g opacity="0.18" stroke="#ffffff" stroke-width="1" fill="none">
    <circle cx="500" cy="320" r="180"/>
    <circle cx="500" cy="320" r="300"/>
    <circle cx="500" cy="320" r="440"/>
    <circle cx="2100" cy="780" r="160"/>
    <circle cx="2100" cy="780" r="280"/>
  </g>

  <g opacity="0.12" fill="#ffffff">
    <polygon points="1280,540 1700,720 1280,900 860,720"/>
    <polygon points="1280,540 1500,650 1280,760 1060,650" opacity="0.4"/>
  </g>

  <g opacity="0.25" stroke="#ffffff" stroke-width="1.5" fill="none" stroke-linecap="round">
    <path d="M 0 880 Q 640 760 1280 880 T 2560 880"/>
    <path d="M 0 960 Q 640 840 1280 960 T 2560 960" opacity="0.6"/>
  </g>

  <rect width="2560" height="1080" fill="#000000" opacity="0.20"/>
  <rect width="2560" height="1080" filter="url(#grain)"/>
</svg>
